The Fighter, is a drama about boxer "Irish" Micky Ward's unlikely road to the world light welterweight title. His Rocky-like rise was shepherded by half-brother Dicky, a boxer-turned-trainer who rebounded in life after nearly being KO'd by drugs and crime



Mark Wahlberg	 ...	
Micky Ward
 	Christian Bale	 ...	
Dicky Eklund
 	Amy Adams	 ...	
Charlene Fleming
 	Melissa Leo	 ...	
Alice Ward
 	Mickey O'Keefe	 ...	
Himself
 	Jack McGee	 ...	
George Ward
 	Melissa McMeekin	 ...	
'Little Alice' Eklund
 	Bianca Hunter	 ...	
Cathy 'Pork' Eklund
 	Erica McDermott	 ...	
Cindy 'Tar' Eklund
 	Jill Quigg	 ...	
Donna Eklund Jaynes
 	Dendrie Taylor	 ...	
Gail 'Red Dog' Eklund
 	Kate B. O'Brien	 ...	
Phyllis 'Beaver' Eklund
 	Jenna Lamia	 ...	
Sherri Ward
 	Frank Renzulli	 ...	
Sal Lanano
 	Paul Campbell	 ...	
Gary 'Boo Boo' Giuffrida



Format                           : AVI
Format/Info                      : Audio Video Interleave
File size                        : 800 MiB
Duration                         : 1h 55mn
Overall bit rate                 : 968 Kbps
Writing application              : VirtualDubMod 1.5.4.1 (build 2178/release)
Writing library                  : VirtualDubMod build 2178/release

Video
ID                               : 0
Format                           : MPEG-4 Visual
Format profile                   : Advanced Simple@L5
Format settings, BVOP            : 1
Format settings, QPel            : No
Format settings, GMC             : No warppoints
Format settings, Matrix          : Custom
Codec ID                         : XVID
Codec ID/Hint                    : XviD
Duration                         : 1h 55mn
Bit rate                         : 842 Kbps
Width                            : 608 pixels
Height                           : 288 pixels
Display aspect ratio             : 2.2:1
Frame rate                       : 25.000 fps
Color space                      : YUV
Chroma subsampling               : 4:2:0
Bit depth                        : 8 bits
Scan type                        : Progressive
Compression mode                 : Lossy
Bits/(Pixel*Frame)               : 0.192
Stream size                      : 696 MiB (87%)
Writing library                  : XviD 1.2.1 (UTC 2008-12-04)

Audio
ID                               : 1
Format                           : MPEG Audio
Format version                   : Version 1
Format profile                   : Layer 3
Mode                             : Joint stereo
Mode extension                   : MS Stereo
Codec ID                         : 55
Codec ID/Hint                    : MP3
Duration                         : 1h 55mn
Bit rate mode                    : Variable
Bit rate                         : 113 Kbps
Nominal bit rate                 : 128 Kbps
Channel(s)                       : 2 channels
Sampling rate                    : 48.0 KHz
Compression mode                 : Lossy
Stream size                      : 93.5 MiB (12%)
Alignment                        : Aligned on interleaves
Interleave, duration             : 24 ms (0.60 video frame)
Interleave, preload duration     : 163 ms
Writing library                  : LAME3.98r

[img]http://img35.imageshack.us/img35/6643/vlcsnap2011020721h21m20.png[/img]
[img]http://img716.imageshack.us/img716/488/vlcsnap2011020721h22m11.png[/img]
[img]http://img713.imageshack.us/img713/4156/vlcsnap2011020721h22m41.png[/img]
